<svg width="0" height="0" class="hidden">
  <symbol xmlns="http://www.w3.org/2000/svg" viewBox="0 0 451.847 451.847" id="arrow-down">
    <path d="M225.923 354.706c-8.098 0-16.195-3.092-22.369-9.263L9.27 151.157c-12.359-12.359-12.359-32.397 0-44.751 12.354-12.354 32.388-12.354 44.748 0l171.905 171.915 171.906-171.909c12.359-12.354 32.391-12.354 44.744 0 12.365 12.354 12.365 32.392 0 44.751L248.292 345.449c-6.177 6.172-14.274 9.257-22.369 9.257z"></path>
  </symbol>
  <symbol xmlns="http://www.w3.org/2000/svg" viewBox="0 0 413.348 413.348" id="close">
    <path d="M413.348 24.354L388.994 0l-182.32 182.32L24.354 0 0 24.354l182.32 182.32L0 388.994l24.354 24.354 182.32-182.32 182.32 182.32 24.354-24.354-182.32-182.32z"></path>
  </symbol>
  <symbol xmlns="http://www.w3.org/2000/svg" viewBox="0 0 384 384" id="menu">
    <path d="M0 277.333h384V320H0zm0-106.666h384v42.667H0zM0 64h384v42.667H0z"></path>
  </symbol>
  <symbol xmlns="http://www.w3.org/2000/svg" viewBox="0 0 490.8 490.8" id="right-arrow--thin">
    <path d="M135.685 3.128c-4.237-4.093-10.99-3.975-15.083.262-3.992 4.134-3.992 10.687 0 14.82l227.115 227.136-227.136 227.115c-4.237 4.093-4.354 10.845-.262 15.083 4.093 4.237 10.845 4.354 15.083.262.089-.086.176-.173.262-.262l234.667-234.667c4.164-4.165 4.164-10.917 0-15.083L135.685 3.128z" fill="#f44336"></path>
    <path d="M128.133 490.68a10.667 10.667 0 01-7.552-18.219l227.136-227.115L120.581 18.232c-4.171-4.171-4.171-10.933 0-15.104 4.171-4.171 10.933-4.171 15.104 0l234.667 234.667c4.164 4.165 4.164 10.917 0 15.083L135.685 487.544a10.663 10.663 0 01-7.552 3.136z"></path>
  </symbol>
  <symbol xmlns="http://www.w3.org/2000/svg" viewBox="0 0 512 512" id="search">
    <path d="M225.474 0C101.151 0 0 101.151 0 225.474c0 124.33 101.151 225.474 225.474 225.474 124.33 0 225.474-101.144 225.474-225.474C450.948 101.151 349.804 0 225.474 0zm0 409.323c-101.373 0-183.848-82.475-183.848-183.848S124.101 41.626 225.474 41.626s183.848 82.475 183.848 183.848-82.475 183.849-183.848 183.849z"></path>
    <path d="M505.902 476.472L386.574 357.144c-8.131-8.131-21.299-8.131-29.43 0-8.131 8.124-8.131 21.306 0 29.43l119.328 119.328A20.74 20.74 0 00491.187 512a20.754 20.754 0 0014.715-6.098c8.131-8.124 8.131-21.306 0-29.43z"></path>
  </symbol>
</svg>